<?xml version="1.0" encoding="UTF-8"?> <svg xmlns="http://www.w3.org/2000/svg" xmlns:xlink="http://www.w3.org/1999/xlink" id="Layer_1" data-name="Layer 1" viewBox="0 0 217.19 227.29"><defs><style>.cls-1{fill:#f7e102;}.cls-2{fill:url(#linear-gradient);}.cls-3{fill:url(#linear-gradient-2);}.cls-4{fill:#fff;}</style><linearGradient id="linear-gradient" x1="420.63" y1="262.86" x2="420.63" y2="241.12" gradientUnits="userSpaceOnUse"><stop offset="0" stop-color="#f7e102"></stop><stop offset="0.99" stop-color="#fdc609"></stop><stop offset="1"></stop></linearGradient><linearGradient id="linear-gradient-2" x1="421.1" y1="239.16" x2="421.1" y2="183.89" gradientUnits="userSpaceOnUse"><stop offset="0" stop-color="#f7e102"></stop><stop offset="0" stop-color="#fcc908"></stop><stop offset="1" stop-color="#fdc609"></stop><stop offset="1"></stop></linearGradient></defs><path class="cls-1" d="M431.77,294l-21.66-.13c.31,11.31.83,26.84,1.67,42.85l.24,0,18.05-.06h.11c.83-15.92,1.35-31.36,1.67-42.65Z" transform="translate(-312.25 -183.89)"></path><path class="cls-1" d="M424.82,348.58H412.46c.28,4.53.59,9,.93,13.38h15.18c.26-3.39.51-6.87.74-10.37Z" transform="translate(-312.25 -183.89)"></path><path class="cls-1" d="M420.71,410.36v.82c.09-.11.18-.26.27-.39.09.13.18.28.27.39v-.82c2.53-4.37,4.49-19.11,6-33.86H414.69C416.21,391.25,418.18,406,420.71,410.36Z" transform="translate(-312.25 -183.89)"></path><path class="cls-2" d="M425.41,260s4.81-3.26,4.63-8.35a10.62,10.62,0,0,0-6.17-8.54s-3.44-2.44-12.66-1.91v.88s.65,10.9,1.5,20.75C413.62,262.88,420.74,263.22,425.41,260Z" transform="translate(-312.25 -183.89)"></path><path class="cls-1" d="M428.12,273.77c.28-2.11.57-4.79.84-7.69-.87.47-8,4.17-15.63,3.38.17,1.59.34,3.05.51,4.31H398v2.44h11.73s0,2.05.11,5.63h22.32l.11-5.63H444v-2.44Z" transform="translate(-312.25 -183.89)"></path><path class="cls-3" d="M415.15,210.55a186.86,186.86,0,0,0-3.66,23.83c2.7-.17,12.75-.41,19.23,4.78-.35-13-3.91-28.61-3.91-28.61-2.44-12.57-.94-14.63-.94-14.63,2.34-5.63,1.05-8.25-.82-9.47v-.74a1.83,1.83,0,0,0-1.82-1.82h-4.36a1.82,1.82,0,0,0-1.81,1.82v.64c-2,1.18-3.38,3.79-1,9.57C416.09,195.92,417.59,198,415.15,210.55Z" transform="translate(-312.25 -183.89)"></path><path class="cls-4" d="M334.83,291.78c-6.7,0-10.58,1.85-10.58,7v32.81c0,5.15,3.88,7.08,10.58,7.08h38.81v7.88H331.18c-11.29,0-18.93-3.53-18.93-11.66v-39c0-8.12,7.64-12.06,18.93-12.06h42.46v8Z" transform="translate(-312.25 -183.89)"></path><path class="cls-4" d="M489.94,291.78c-6.7,0-10.58,1.85-10.58,7v32.81c0,5.15,3.88,7.08,10.58,7.08h38.81v7.88H486.3c-11.29,0-18.94-3.53-18.94-11.66v-39c0-8.12,7.65-12.06,18.94-12.06h42.45v8Z" transform="translate(-312.25 -183.89)"></path><path class="cls-4" d="M316.58,366.21c-.85,0-1.35.23-1.35.85v4c0,.62.5.86,1.35.86h4.94v1h-5.41c-1.43,0-2.41-.43-2.41-1.42v-4.76c0-1,1-1.47,2.41-1.47h5.41v1Z" transform="translate(-312.25 -183.89)"></path><path class="cls-4" d="M323.1,371.47v-6.23h1.53v5.83c0,.62.49.86,1.35.86h4.9v1h-5.37C324.08,372.89,323.1,372.46,323.1,371.47Z" transform="translate(-312.25 -183.89)"></path><path class="cls-4" d="M340.25,371.47c0,1-1,1.42-2.43,1.42H334c-1.43,0-2.41-.47-2.41-1.46v-4.72c0-1,1-1.47,2.41-1.47h3.78c1.44,0,2.43.48,2.43,1.47Zm-7.09-.4c0,.62.49.86,1.41.86h2.79c.85,0,1.34-.24,1.34-.86v-4c0-.62-.49-.85-1.34-.85h-2.79c-.92,0-1.41.23-1.41.85Z" transform="translate(-312.25 -183.89)"></path><path class="cls-4" d="M347.43,368.51c1.44,0,2.41.47,2.41,1.46v1.5c0,1-1,1.42-2.41,1.42H342v-1h5c.85,0,1.35-.24,1.35-.86v-.74c0-.63-.5-.85-1.35-.85h-2.66c-1.43,0-2.41-.48-2.41-1.47v-1.34c0-1,1-1.43,2.41-1.43h5.44v1h-5c-.86,0-1.35.23-1.35.85v.59c0,.62.49.86,1.35.86Z" transform="translate(-312.25 -183.89)"></path><path class="cls-4" d="M353,369.54v1.53c0,.62.5.86,1.35.86h4.8v1h-5.26c-1.44,0-2.41-.43-2.41-1.42v-4.76c0-1,1-1.47,2.41-1.47h5.26v1h-4.8c-.85,0-1.35.23-1.35.85v1.51h6v1Z" transform="translate(-312.25 -183.89)"></path><path class="cls-4" d="M373.93,371.47c0,.79-.63,1.23-1.66,1.37l1.63,1.09h-1.85l-1.65-1h-2.67c-1.44,0-2.41-.47-2.41-1.46v-4.72c0-1,1-1.47,2.41-1.47h3.78c1.44,0,2.42.48,2.42,1.47Zm-7.08-.87c0,1,.15,1.33,1.41,1.33H371c.92,0,1.35-.27,1.35-1v-3.42c0-1-.16-1.32-1.35-1.32h-2.78c-.92,0-1.41.23-1.41.85Z" transform="translate(-312.25 -183.89)"></path><path class="cls-4" d="M377.37,371.12c0,.56.49.81,1.42.81h2.73c1,0,1.42-.25,1.42-.81v-5.88h1.53v6.13c0,1-.79,1.52-2.27,1.52h-4c-1.46,0-2.32-.56-2.32-1.52v-6.13h1.53Z" transform="translate(-312.25 -183.89)"></path><path class="cls-4" d="M385.3,372.89l3.93-7.17a1.18,1.18,0,0,1,1.12-.64,1.24,1.24,0,0,1,1.16.64l3.88,7.17H393.8l-1-1.75h-4.91l-1,1.75Zm5-6.28-2,3.58h4Z" transform="translate(-312.25 -183.89)"></path><path class="cls-4" d="M398.39,369.9c-.27-.17-.39-.36-.39-.52s.45-.49,1-.49h3.16c.85,0,1.35-.23,1.35-.85v-1c0-.62-.5-.85-1.35-.85H398v6.68h-1.53v-7.65h6.14c1.44,0,2.43.48,2.43,1.47v1.58c0,1.07-.69,1.57-2.68,1.57h-1.95l4.86,3h-2.12Z" transform="translate(-312.25 -183.89)"></path><path class="cls-4" d="M410.29,366.2v6.69h-1.54V366.2h-3.07v-1h7.64v1Z" transform="translate(-312.25 -183.89)"></path><path class="cls-4" d="M415.6,369.54v1.53c0,.62.49.86,1.35.86h4.79v1h-5.26c-1.44,0-2.41-.43-2.41-1.42v-4.76c0-1,1-1.47,2.41-1.47h5.26v1H417c-.86,0-1.35.23-1.35.85v1.51h6v1Z" transform="translate(-312.25 -183.89)"></path><path class="cls-4" d="M425.42,369.9c-.27-.17-.39-.36-.39-.52s.45-.49,1-.49h3.16c.85,0,1.35-.23,1.35-.85v-1c0-.62-.5-.85-1.35-.85H425v6.68h-1.53v-7.65h6.14c1.44,0,2.43.48,2.43,1.47v1.58c0,1.07-.69,1.57-2.68,1.57h-1.95l4.86,3h-2.12Z" transform="translate(-312.25 -183.89)"></path><path class="cls-4" d="M441.2,366.21c-.85,0-1.35.23-1.35.85v4c0,.62.5.86,1.35.86h4.95v1h-5.41c-1.44,0-2.41-.43-2.41-1.42v-4.76c0-1,1-1.47,2.41-1.47h5.41v1Z" transform="translate(-312.25 -183.89)"></path><path class="cls-4" d="M456.27,371.47c0,1-1,1.42-2.43,1.42h-3.78c-1.43,0-2.41-.47-2.41-1.46v-4.72c0-1,1-1.47,2.41-1.47h3.78c1.44,0,2.43.48,2.43,1.47Zm-7.09-.4c0,.62.49.86,1.41.86h2.79c.85,0,1.34-.24,1.34-.86v-4c0-.62-.49-.85-1.34-.85h-2.79c-.92,0-1.41.23-1.41.85Z" transform="translate(-312.25 -183.89)"></path><path class="cls-4" d="M467.94,365.64a1.38,1.38,0,0,1,1.22-.56c.58,0,1.14.25,1.14.68v7.13h-1.55V367l-3.53,5.49a1.1,1.1,0,0,1-1.92,0L459.75,367v5.88h-1.53v-7.1c0-.46.52-.71,1.14-.71a1.39,1.39,0,0,1,1.21.57l3.69,5.71Z" transform="translate(-312.25 -183.89)"></path><path class="cls-4" d="M480.93,371.47c0,1-1,1.42-2.41,1.42H472.4v-7.65h6.12c1.43,0,2.41.48,2.41,1.47V368c0,.57-.42.86-.89,1.05.47.2.89.51.89,1.06Zm-7-5.26v2.32h4.15c.86,0,1.32-.26,1.32-.87v-.6c0-.62-.5-.85-1.35-.85Zm0,3.29v2.43h4.12c.85,0,1.35-.24,1.35-.86v-.7c0-.61-.48-.87-1.32-.87Z" transform="translate(-312.25 -183.89)"></path><path class="cls-4" d="M481.62,372.89l3.93-7.17a1.18,1.18,0,0,1,1.12-.64,1.24,1.24,0,0,1,1.16.64l3.88,7.17h-1.59l-1-1.75H484.2l-1,1.75Zm5-6.28-2,3.58h4Z" transform="translate(-312.25 -183.89)"></path><path class="cls-4" d="M494.83,366.2v6.69h-1.55V366.2h-3.07v-1h7.64v1Z" transform="translate(-312.25 -183.89)"></path><path class="cls-4" d="M500.44,372.89h-1.53v-7.65h1.53Z" transform="translate(-312.25 -183.89)"></path><path class="cls-4" d="M507.67,372.53a1.08,1.08,0,0,1-1.09.53,1.14,1.14,0,0,1-1.12-.53l-4-7.28h1.58l3.5,6.35,3.49-6.35h1.59Z" transform="translate(-312.25 -183.89)"></path><path class="cls-4" d="M513.93,369.54v1.53c0,.62.49.86,1.35.86h4.79v1h-5.26c-1.44,0-2.41-.43-2.41-1.42v-4.76c0-1,1-1.47,2.41-1.47h5.26v1h-4.79c-.86,0-1.35.23-1.35.85v1.51h6v1Z" transform="translate(-312.25 -183.89)"></path><path class="cls-4" d="M527,368.51c1.44,0,2.41.47,2.41,1.46v1.5c0,1-1,1.42-2.41,1.42h-5.44v-1h5c.86,0,1.35-.24,1.35-.86v-.74c0-.63-.49-.85-1.35-.85h-2.65c-1.44,0-2.41-.48-2.41-1.47v-1.34c0-1,1-1.43,2.41-1.43h5.44v1h-5c-.86,0-1.35.23-1.35.85v.59c0,.62.49.86,1.35.86Z" transform="translate(-312.25 -183.89)"></path><path class="cls-4" d="M355.9,236.41v31.13h-3.66V242.73L336.8,267.54h-3.37L318,242.73v24.81h-3.66V236.41H318l17.16,27.3,17.09-27.3Z" transform="translate(-312.25 -183.89)"></path><path class="cls-4" d="M359.05,252c0-8.94,9.15-15.92,20.58-15.92s20.59,7,20.59,15.92-9.09,15.91-20.59,15.91S359.05,260.91,359.05,252Zm37.51,0c0-7.39-7.44-13.12-16.93-13.12s-16.92,5.73-16.92,13.12,7.49,13.11,16.92,13.11S396.56,259.36,396.56,252Z" transform="translate(-312.25 -183.89)"></path><path class="cls-4" d="M442.48,239.12v10.77H460.2v2.71H442.48v12.23h19.89v2.71H438.82V236.41h23.55v2.71Z" transform="translate(-312.25 -183.89)"></path><path class="cls-4" d="M465.52,236.41h12.92c7.09,0,12.87,4.14,12.87,9.65,0,5.29-5.15,9.29-10.87,9.83l9.95,11.65h-4.11l-9.61-11.43h-7.49v11.43h-3.66Zm12.92,17.17c5.26,0,9.21-3.38,9.21-7.52S483.7,239,478.44,239h-9.26v14.63Z" transform="translate(-312.25 -183.89)"></path><path class="cls-4" d="M527.22,236.41v31.13h-3.66l-25.45-26.19v26.19h-3.65V236.41h3.65l25.45,26.19V236.41Z" transform="translate(-312.25 -183.89)"></path><rect class="cls-4" x="1.82" y="89.71" width="80.64" height="2.72"></rect><rect class="cls-4" x="134.82" y="89.71" width="80.64" height="2.72"></rect><path class="cls-4" d="M453,334.89c0,6.52-4.94,10.14-13.06,11.26l12.82,8.93H438.2l-12.94-8.53H404.33c-11.29,0-18.93-3.86-18.93-12V295.88c0-8.12,7.64-12.06,18.93-12.06H434c11.29,0,19,3.94,19,12.06Zm-55.63-7.16c0,8,1.18,10.94,11.06,10.94h21.87c7.17,0,10.58-2.25,10.58-8v-28c0-8-1.29-10.86-10.58-10.86H408.45c-7.18,0-11.06,1.85-11.06,7Z" transform="translate(-312.25 -183.89)"></path><path class="cls-4" d="M435.67,252c0,8.93-9.09,15.56-20.58,15.56H403.37V236.41h11.72C426.58,236.41,435.67,243,435.67,252ZM432,252c0-7.39-7.38-12.86-16.92-12.86H407v25.71h8.07C424.63,264.83,432,259.36,432,252Z" transform="translate(-312.25 -183.89)"></path></svg> 